<?xml version="1.0" encoding="utf-8"?>
<!DOCTYPE svg PUBLIC "-//W3C//DTD SVG 1.1//EN" "http://www.w3.org/Graphics/SVG/1.1/DTD/svg11.dtd">
<svg version="1.1" id="Layer_1" xmlns="http://www.w3.org/2000/svg" xmlns:xlink="http://www.w3.org/1999/xlink" x="0px" y="0px"
	 width="198.425px" height="100px" viewBox="-24.213 0 198.425 100" enable-background="new -24.213 0 198.425 100"
	 xml:space="preserve">
<rect x="-26.501" y="-1.154" fill="#61BF82" width="203.001" height="102.307"/>
<g>
	<rect x="92.407" y="61.562" fill="#FFFFFF" width="2.425" height="27.312"/>
	<polygon fill="#FFFFFF" points="102.61,62.821 92.407,62.821 92.407,60.396 102.593,60.373 	"/>
	<rect x="92.486" y="86.426" fill="#FFFFFF" width="10.203" height="2.448"/>
	<rect x="92.486" y="79.062" fill="#FFFFFF" width="10.203" height="2.426"/>
</g>
<g>
	<rect x="106.267" y="61.586" fill="#FFFFFF" width="2.425" height="27.288"/>
	<rect x="106.267" y="60.396" fill="#FFFFFF" width="10.355" height="2.425"/>
	<rect x="106.347" y="79.088" fill="#FFFFFF" width="10.275" height="2.424"/>
	<rect x="114.196" y="61.02" fill="#FFFFFF" width="2.426" height="19.885"/>
</g>
<g>
	<rect x="127.048" y="61.586" fill="#FFFFFF" width="2.425" height="27.288"/>
	<rect x="127.048" y="60.396" fill="#FFFFFF" width="10.283" height="2.425"/>
	<rect x="127.128" y="86.449" fill="#FFFFFF" width="10.203" height="2.425"/>
</g>
<g>
	<rect x="78.547" y="49.655" fill="#FFFFFF" width="2.424" height="39.219"/>
	<rect x="70.409" y="60.357" fill="#FFFFFF" width="18.698" height="2.427"/>
	<rect x="79.193" y="86.426" fill="#FFFFFF" width="10.199" height="2.448"/>
</g>
<g>
	<rect x="120.622" y="60.455" fill="#FFFFFF" width="2.424" height="28.419"/>
	<rect x="120.622" y="49.692" fill="#FFFFFF" width="2.424" height="7.929"/>
</g>
<g>
	<polygon fill="#FFFFFF" points="38.447,87.729 28.45,77.73 48.447,77.73 	"/>
	<rect x="11.033" y="60.594" fill="#FFFFFF" width="55.084" height="2.467"/>
	<polygon fill="#FFFFFF" points="39.319,90.116 37.575,90.116 19.372,71.912 21.116,70.168 38.447,87.5 62.886,63.061 
		11.033,63.062 11.033,60.596 65.863,60.594 66.735,62.698 	"/>
	<polygon fill="#FFFFFF" points="65.99,63.061 10.906,63.061 10.034,60.955 23.811,47.18 15.738,47.18 14.866,45.074 28.917,31.021 
		21.688,31.021 20.816,28.916 37.576,12.157 39.32,12.157 56.08,28.916 55.207,31.021 47.978,31.021 62.03,45.074 61.158,47.18 
		50.107,47.18 50.107,44.712 58.18,44.712 44.127,30.659 45,28.554 52.229,28.554 38.448,14.772 24.666,28.554 31.896,28.554 
		32.768,30.659 18.716,44.712 26.789,44.712 27.661,46.818 13.884,60.594 65.99,60.594 	"/>
</g>
<g>
	<path fill="#FFFFFF" d="M153.38,40.069h-0.789v-2.122c0-0.229,0.01-0.482,0.031-0.761h-0.021c-0.041,0.218-0.079,0.375-0.11,0.47
		l-0.833,2.413h-0.653l-0.847-2.386c-0.023-0.066-0.06-0.231-0.111-0.497h-0.021c0.021,0.35,0.031,0.658,0.031,0.922v1.961h-0.72
		v-3.548h1.171l0.726,2.104c0.058,0.169,0.099,0.338,0.125,0.506h0.017c0.044-0.194,0.092-0.365,0.14-0.511l0.726-2.099h1.141
		V40.069z"/>
	<path fill="#FFFFFF" d="M156.568,40.069h-2.128v-3.548h2.047v0.65h-1.248v0.79h1.161v0.648h-1.161v0.812h1.329V40.069z"/>
	<path fill="#FFFFFF" d="M160.368,40.069h-0.918l-0.552-0.912c-0.043-0.069-0.082-0.13-0.119-0.186
		c-0.037-0.055-0.077-0.102-0.114-0.14c-0.04-0.038-0.079-0.068-0.122-0.089s-0.088-0.03-0.137-0.03h-0.216v1.356h-0.798v-3.548
		h1.266c0.861,0,1.293,0.321,1.293,0.965c0,0.125-0.02,0.239-0.059,0.345c-0.037,0.104-0.091,0.198-0.16,0.281
		c-0.069,0.085-0.152,0.156-0.25,0.218c-0.098,0.062-0.209,0.109-0.328,0.145v0.009c0.052,0.017,0.104,0.044,0.152,0.081
		c0.051,0.037,0.097,0.082,0.144,0.129c0.046,0.051,0.091,0.104,0.133,0.16c0.042,0.058,0.08,0.113,0.115,0.168L160.368,40.069z
		 M158.19,37.121v0.987h0.346c0.172,0,0.31-0.049,0.414-0.148c0.105-0.101,0.158-0.226,0.158-0.373c0-0.311-0.185-0.466-0.557-0.466
		H158.19z"/>
	<path fill="#FFFFFF" d="M163.932,40.069h-0.92l-0.551-0.912c-0.041-0.069-0.082-0.13-0.119-0.186
		c-0.039-0.055-0.077-0.102-0.115-0.14c-0.04-0.038-0.08-0.068-0.121-0.089c-0.043-0.021-0.089-0.03-0.138-0.03h-0.215v1.356h-0.799
		v-3.548h1.266c0.861,0,1.292,0.321,1.292,0.965c0,0.125-0.02,0.239-0.057,0.345c-0.038,0.104-0.091,0.198-0.161,0.281
		c-0.069,0.085-0.153,0.156-0.25,0.218c-0.1,0.062-0.208,0.109-0.328,0.145v0.009c0.052,0.017,0.104,0.044,0.152,0.081
		c0.05,0.037,0.098,0.082,0.144,0.129c0.046,0.051,0.09,0.104,0.133,0.16c0.042,0.058,0.08,0.113,0.115,0.168L163.932,40.069z
		 M161.753,37.121v0.987h0.347c0.17,0,0.309-0.049,0.412-0.148c0.105-0.101,0.158-0.226,0.158-0.373
		c0-0.311-0.186-0.466-0.556-0.466H161.753z"/>
	<path fill="#FFFFFF" d="M167.142,36.521l-1.156,2.287v1.261h-0.799v-1.246l-1.126-2.302h0.913l0.572,1.325
		c0.009,0.022,0.036,0.121,0.081,0.288h0.01c0.021-0.119,0.047-0.212,0.077-0.279l0.581-1.334H167.142z"/>
	<path fill="#FFFFFF" d="M150.692,44.45c-0.155,0.075-0.354,0.113-0.602,0.113c-0.323,0-0.576-0.097-0.761-0.285
		c-0.186-0.19-0.277-0.442-0.277-0.76c0-0.335,0.104-0.608,0.311-0.816c0.207-0.208,0.478-0.315,0.809-0.315
		c0.205,0,0.379,0.028,0.521,0.08v0.455c-0.142-0.084-0.302-0.127-0.481-0.127c-0.197,0-0.357,0.062-0.478,0.187
		c-0.122,0.125-0.182,0.293-0.182,0.505c0,0.201,0.056,0.365,0.171,0.485c0.114,0.121,0.268,0.181,0.461,0.181
		c0.185,0,0.354-0.044,0.509-0.134V44.45z"/>
	<path fill="#FFFFFF" d="M153.027,44.525h-0.475v-0.855h-0.871v0.855h-0.474v-2.102h0.474v0.837h0.871v-0.837h0.475V44.525z"/>
	<path fill="#FFFFFF" d="M155.421,44.525h-0.544l-0.326-0.541c-0.024-0.041-0.049-0.079-0.072-0.11
		c-0.021-0.03-0.044-0.06-0.067-0.082c-0.023-0.023-0.047-0.041-0.071-0.054c-0.024-0.012-0.053-0.018-0.082-0.018h-0.127v0.805
		h-0.473v-2.102h0.749c0.512,0,0.765,0.19,0.765,0.571c0,0.074-0.011,0.141-0.032,0.202c-0.023,0.062-0.055,0.119-0.097,0.168
		c-0.04,0.052-0.091,0.094-0.147,0.129c-0.059,0.037-0.124,0.065-0.193,0.086v0.005c0.029,0.01,0.061,0.026,0.091,0.05
		c0.027,0.021,0.056,0.047,0.084,0.075c0.028,0.031,0.054,0.062,0.077,0.094c0.026,0.035,0.049,0.069,0.07,0.1L155.421,44.525z
		 M154.131,42.776v0.586h0.205c0.103,0,0.183-0.028,0.245-0.086c0.062-0.062,0.094-0.135,0.094-0.223c0-0.184-0.11-0.277-0.33-0.277
		H154.131z"/>
	<path fill="#FFFFFF" d="M156.241,42.423v2.102h-0.476v-2.102H156.241z"/>
	<path fill="#FFFFFF" d="M156.771,44.444v-0.469c0.086,0.071,0.178,0.125,0.279,0.161c0.098,0.035,0.2,0.054,0.3,0.054
		c0.062,0,0.111-0.006,0.156-0.017s0.082-0.027,0.112-0.044c0.031-0.021,0.051-0.043,0.065-0.068
		c0.016-0.026,0.022-0.054,0.022-0.085c0-0.041-0.011-0.077-0.035-0.11c-0.021-0.031-0.055-0.062-0.097-0.088
		c-0.039-0.028-0.088-0.055-0.143-0.079c-0.057-0.026-0.115-0.053-0.181-0.077c-0.164-0.068-0.287-0.154-0.369-0.252
		c-0.08-0.1-0.12-0.219-0.12-0.358c0-0.109,0.022-0.202,0.067-0.282c0.043-0.078,0.103-0.143,0.18-0.194
		c0.075-0.049,0.164-0.087,0.263-0.11s0.205-0.038,0.315-0.038s0.207,0.009,0.293,0.021c0.084,0.013,0.162,0.034,0.232,0.061v0.438
		c-0.036-0.023-0.074-0.046-0.114-0.063c-0.041-0.018-0.086-0.034-0.129-0.046c-0.044-0.014-0.087-0.022-0.131-0.027
		c-0.044-0.006-0.085-0.009-0.124-0.009c-0.054,0-0.104,0.006-0.148,0.014c-0.043,0.012-0.079,0.026-0.109,0.044
		c-0.031,0.02-0.054,0.041-0.071,0.068c-0.016,0.024-0.024,0.053-0.024,0.087c0,0.036,0.009,0.065,0.027,0.095
		c0.02,0.026,0.045,0.052,0.079,0.078c0.035,0.024,0.076,0.049,0.126,0.074c0.048,0.023,0.104,0.048,0.165,0.074
		c0.083,0.034,0.16,0.071,0.226,0.111c0.068,0.04,0.126,0.084,0.172,0.135c0.05,0.049,0.085,0.105,0.111,0.17
		c0.025,0.064,0.039,0.139,0.039,0.224c0,0.116-0.022,0.215-0.068,0.295c-0.044,0.08-0.104,0.144-0.18,0.193
		c-0.076,0.049-0.166,0.086-0.268,0.106c-0.101,0.022-0.208,0.034-0.32,0.034c-0.113,0-0.225-0.012-0.328-0.031
		C156.938,44.512,156.85,44.484,156.771,44.444z"/>
	<path fill="#FFFFFF" d="M160.178,42.809h-0.599v1.716h-0.477v-1.716h-0.596v-0.386h1.671V42.809z"/>
	<path fill="#FFFFFF" d="M163.005,44.525h-0.467v-1.257c0-0.138,0.006-0.287,0.019-0.451h-0.013
		c-0.024,0.129-0.047,0.222-0.066,0.278l-0.491,1.43H161.6l-0.502-1.415c-0.014-0.037-0.034-0.135-0.065-0.293h-0.014
		c0.014,0.207,0.02,0.39,0.02,0.545v1.163h-0.427v-2.102h0.694l0.428,1.246c0.036,0.099,0.059,0.199,0.075,0.299h0.009
		c0.026-0.115,0.055-0.217,0.083-0.303l0.431-1.242h0.674V44.525z"/>
	<path fill="#FFFFFF" d="M165.481,44.525h-0.515l-0.15-0.469h-0.748l-0.147,0.469h-0.514l0.766-2.102h0.562L165.481,44.525z
		 M164.709,43.693l-0.226-0.705c-0.018-0.054-0.029-0.116-0.037-0.19h-0.012c-0.005,0.062-0.017,0.124-0.034,0.184l-0.229,0.712
		H164.709z"/>
	<path fill="#FFFFFF" d="M165.799,44.444v-0.469c0.085,0.071,0.178,0.125,0.277,0.161c0.098,0.035,0.199,0.054,0.301,0.054
		c0.06,0,0.112-0.006,0.156-0.017c0.043-0.011,0.081-0.027,0.111-0.044c0.03-0.021,0.053-0.043,0.066-0.068
		c0.016-0.026,0.021-0.054,0.021-0.085c0-0.041-0.011-0.077-0.034-0.11c-0.022-0.031-0.055-0.062-0.096-0.088
		c-0.04-0.028-0.088-0.055-0.143-0.079c-0.057-0.026-0.117-0.053-0.182-0.077c-0.164-0.068-0.286-0.154-0.367-0.252
		c-0.081-0.1-0.122-0.219-0.122-0.358c0-0.109,0.022-0.202,0.067-0.282c0.044-0.078,0.103-0.143,0.179-0.194
		c0.077-0.049,0.164-0.087,0.264-0.11c0.099-0.023,0.205-0.038,0.316-0.038c0.108,0,0.206,0.009,0.291,0.021
		s0.162,0.034,0.233,0.061v0.438c-0.034-0.023-0.073-0.046-0.113-0.063c-0.043-0.018-0.086-0.034-0.129-0.046
		c-0.045-0.014-0.088-0.022-0.131-0.027c-0.045-0.006-0.085-0.009-0.125-0.009c-0.054,0-0.102,0.006-0.146,0.014
		c-0.044,0.012-0.081,0.026-0.111,0.044c-0.031,0.02-0.053,0.041-0.07,0.068c-0.017,0.024-0.025,0.053-0.025,0.087
		c0,0.036,0.01,0.065,0.029,0.095c0.018,0.026,0.044,0.052,0.078,0.078c0.033,0.024,0.075,0.049,0.125,0.074
		c0.048,0.023,0.104,0.048,0.166,0.074c0.084,0.034,0.159,0.071,0.226,0.111s0.124,0.084,0.173,0.135
		c0.047,0.049,0.084,0.105,0.109,0.17c0.024,0.064,0.039,0.139,0.039,0.224c0,0.116-0.023,0.215-0.068,0.295
		c-0.044,0.08-0.104,0.144-0.181,0.193c-0.076,0.049-0.165,0.086-0.267,0.106c-0.101,0.022-0.207,0.034-0.32,0.034
		s-0.226-0.012-0.328-0.031C165.963,44.512,165.875,44.484,165.799,44.444z"/>
	<path fill="#FFFFFF" d="M150.987,49.218h-0.504l-0.146-0.458h-0.73l-0.144,0.458h-0.502l0.746-2.054h0.55L150.987,49.218z
		 M150.231,48.407l-0.221-0.692c-0.017-0.048-0.027-0.111-0.034-0.183h-0.013c-0.004,0.06-0.017,0.119-0.034,0.179l-0.224,0.696
		H150.231z"/>
	<path fill="#FFFFFF" d="M153.237,49.218h-0.466l-0.846-1.289c-0.052-0.075-0.084-0.133-0.104-0.171h-0.007
		c0.009,0.073,0.013,0.184,0.013,0.334v1.126h-0.438v-2.054h0.499l0.815,1.252c0.037,0.056,0.071,0.11,0.104,0.166h0.005
		c-0.007-0.048-0.01-0.142-0.01-0.282v-1.136h0.435V49.218z"/>
	<path fill="#FFFFFF" d="M153.854,49.218v-2.054h0.728c0.729,0,1.094,0.335,1.094,1.002c0,0.319-0.1,0.574-0.299,0.765
		c-0.199,0.193-0.464,0.287-0.795,0.287H153.854z M154.316,47.542v1.301h0.229c0.201,0,0.357-0.06,0.472-0.18
		c0.113-0.12,0.172-0.285,0.172-0.49c0-0.196-0.057-0.35-0.17-0.462s-0.272-0.169-0.476-0.169H154.316z"/>
	<path fill="#FFFFFF" d="M158.896,49.218h-0.464v-0.837h-0.852v0.837h-0.464v-2.054h0.464v0.82h0.852v-0.82h0.464V49.218z"/>
	<path fill="#FFFFFF" d="M161.32,49.218h-0.504l-0.146-0.458h-0.73l-0.146,0.458h-0.5l0.747-2.054h0.548L161.32,49.218z
		 M160.562,48.407l-0.219-0.692c-0.017-0.048-0.029-0.111-0.036-0.183h-0.011c-0.004,0.06-0.018,0.119-0.035,0.179l-0.224,0.696
		H160.562z"/>
	<path fill="#FFFFFF" d="M162.184,48.511v0.707h-0.461v-2.054h0.724c0.519,0,0.776,0.22,0.776,0.655c0,0.205-0.075,0.372-0.223,0.5
		c-0.147,0.129-0.346,0.191-0.595,0.191H162.184z M162.184,47.521v0.639h0.182c0.247,0,0.371-0.106,0.371-0.322
		c0-0.211-0.124-0.316-0.371-0.316H162.184z"/>
	<path fill="#FFFFFF" d="M164.133,48.511v0.707h-0.462v-2.054h0.726c0.516,0,0.775,0.22,0.775,0.655c0,0.205-0.074,0.372-0.223,0.5
		c-0.148,0.129-0.348,0.191-0.596,0.191H164.133z M164.133,47.521v0.639h0.182c0.247,0,0.37-0.106,0.37-0.322
		c0-0.211-0.123-0.316-0.37-0.316H164.133z"/>
	<path fill="#FFFFFF" d="M167.166,47.165l-0.668,1.324v0.729h-0.463v-0.722l-0.652-1.332h0.529l0.331,0.768
		c0.005,0.014,0.021,0.07,0.048,0.167h0.006c0.013-0.067,0.027-0.123,0.045-0.162l0.336-0.772H167.166z"/>
	<path fill="#FFFFFF" d="M151.179,53.795h-0.5l-0.907-1.387c-0.053-0.08-0.09-0.141-0.11-0.182h-0.006
		c0.008,0.078,0.012,0.197,0.012,0.357v1.211h-0.468V51.59h0.534l0.873,1.344c0.041,0.059,0.078,0.119,0.111,0.178h0.006
		c-0.008-0.051-0.011-0.152-0.011-0.301V51.59h0.466V53.795z"/>
	<path fill="#FFFFFF" d="M153.161,53.795h-1.319V51.59h1.269v0.404h-0.773v0.49h0.72v0.404h-0.72v0.502h0.824V53.795z"/>
	<path fill="#FFFFFF" d="M156.616,51.59l-0.583,2.205h-0.549l-0.366-1.414c-0.019-0.074-0.03-0.156-0.035-0.246h-0.007
		c-0.009,0.1-0.023,0.182-0.04,0.246l-0.373,1.414h-0.574l-0.577-2.205h0.541l0.31,1.469c0.013,0.061,0.022,0.146,0.028,0.25h0.01
		c0.004-0.076,0.02-0.164,0.046-0.256l0.398-1.463h0.531l0.36,1.48c0.014,0.053,0.024,0.133,0.035,0.236h0.006
		c0.005-0.082,0.016-0.162,0.033-0.246l0.304-1.471H156.616z"/>
	<path fill="#FFFFFF" d="M159.737,51.59l-0.718,1.422v0.783h-0.495V53.02l-0.699-1.43h0.566l0.355,0.824
		c0.006,0.014,0.022,0.074,0.051,0.18h0.006c0.013-0.074,0.029-0.133,0.047-0.174l0.361-0.83H159.737z"/>
	<path fill="#FFFFFF" d="M161.466,53.795h-1.322V51.59h1.27v0.404h-0.774v0.49h0.721v0.404h-0.721v0.502h0.827V53.795z"/>
	<path fill="#FFFFFF" d="M163.955,53.795h-0.541l-0.156-0.492h-0.784l-0.155,0.492h-0.535l0.801-2.205h0.587L163.955,53.795z
		 M163.145,52.924l-0.238-0.742c-0.016-0.053-0.028-0.119-0.036-0.197h-0.012c-0.005,0.064-0.018,0.129-0.038,0.191l-0.24,0.748
		H163.145z"/>
	<path fill="#FFFFFF" d="M166.236,53.795h-0.572l-0.342-0.568c-0.025-0.045-0.049-0.082-0.073-0.115
		c-0.025-0.033-0.047-0.062-0.071-0.086c-0.024-0.025-0.05-0.043-0.076-0.057c-0.025-0.014-0.055-0.02-0.085-0.02h-0.133v0.846
		h-0.496V51.59h0.786c0.533,0,0.803,0.201,0.803,0.6c0,0.076-0.015,0.15-0.036,0.213c-0.023,0.066-0.057,0.125-0.1,0.176
		s-0.096,0.098-0.157,0.135c-0.061,0.037-0.129,0.068-0.204,0.09v0.008c0.034,0.01,0.066,0.025,0.096,0.049
		c0.03,0.023,0.062,0.049,0.089,0.082c0.029,0.027,0.058,0.062,0.083,0.098c0.026,0.035,0.051,0.068,0.072,0.102L166.236,53.795z
		 M164.884,51.963v0.611h0.214c0.107,0,0.193-0.029,0.257-0.09c0.066-0.062,0.099-0.141,0.099-0.232
		c0-0.191-0.115-0.289-0.345-0.289H164.884z"/>
	<path fill="#FFFFFF" d="M166.862,53.828c-0.082,0-0.149-0.023-0.203-0.074s-0.081-0.109-0.081-0.18
		c0-0.074,0.027-0.135,0.081-0.182c0.056-0.047,0.122-0.07,0.203-0.07c0.082,0,0.15,0.023,0.201,0.072
		c0.052,0.045,0.078,0.105,0.078,0.18s-0.026,0.133-0.078,0.182C167.014,53.805,166.945,53.828,166.862,53.828z M167.114,51.59
		l-0.061,1.518h-0.393l-0.058-1.518H167.114z"/>
</g>
<path fill="#FFFFFF" d="M171.562,59.998h-26.837l-1.232-1.236V31.649l1.232-1.234h26.837l1.232,1.234v27.113L171.562,59.998z
	 M145.958,57.529h24.37V32.88h-24.37V57.529z"/>
<path fill="#FFFFFF" d="M158.594,32.438l-10.642-2.842l-0.555-2.062l7.801-7.804l2.065,0.555l2.841,10.644L158.594,32.438z
	 M150.654,27.765l6.518,1.74l-1.741-6.517L150.654,27.765z"/>
<path fill="#FFFFFF" d="M158.66,32.438l-1.51-1.51l2.84-10.644l2.064-0.555l7.802,7.804l-0.552,2.062L158.66,32.438z
	 M161.823,22.989l-1.739,6.517l6.517-1.74L161.823,22.989z"/>
</svg>

